<?xml version="1.0" encoding="UTF-8" standalone="no"?>
<!-- Created with Inkscape (http://www.inkscape.org/) -->

<svg
   id="svg2"
   version="1.1"
   inkscape:version="1.1 (c4e8f9ed74, 2021-05-24)"
   xml:space="preserve"
   width="6.2001176cm"
   height="4.4996514cm"
   viewBox="0 0 197.75423 143.51747"
   sodipodi:docname="Logo_federationclubalpin_couleur.svg"
   xmlns:inkscape="http://www.inkscape.org/namespaces/inkscape"
   xmlns:sodipodi="http://sodipodi.sourceforge.net/DTD/sodipodi-0.dtd"
   xmlns="http://www.w3.org/2000/svg"
   xmlns:svg="http://www.w3.org/2000/svg"
   xmlns:rdf="http://www.w3.org/1999/02/22-rdf-syntax-ns#"
   xmlns:cc="http://creativecommons.org/ns#"
   xmlns:dc="http://purl.org/dc/elements/1.1/"><metadata
     id="metadata8"><rdf:RDF><cc:Work
         rdf:about=""><dc:format>image/svg+xml</dc:format><dc:type
           rdf:resource="http://purl.org/dc/dcmitype/StillImage" /></cc:Work></rdf:RDF></metadata><defs
     id="defs6"><clipPath
       clipPathUnits="userSpaceOnUse"
       id="clipPath16"><path
         d="M 0,841.89 H 595.28 V 0 H 0 Z"
         id="path18"
         inkscape:connector-curvature="0" /></clipPath></defs><sodipodi:namedview
     pagecolor="#ffffff"
     bordercolor="#666666"
     borderopacity="1"
     objecttolerance="10"
     gridtolerance="10"
     guidetolerance="10"
     inkscape:pageopacity="0"
     inkscape:pageshadow="2"
     inkscape:window-width="1908"
     inkscape:window-height="1007"
     id="namedview4"
     showgrid="false"
     fit-margin-top="0"
     fit-margin-left="0"
     fit-margin-right="0"
     fit-margin-bottom="0"
     inkscape:showpageshadow="false"
     inkscape:zoom="2.0987271"
     inkscape:cx="227.28063"
     inkscape:cy="113.87855"
     inkscape:window-x="4"
     inkscape:window-y="4"
     inkscape:window-maximized="0"
     inkscape:current-layer="g10"
     inkscape:pagecheckerboard="0"
     inkscape:document-units="cm"
     units="cm"
     lock-margins="true"
     width="5.1850729cm"
     scale-x="31.89524" /><g
     id="g10"
     inkscape:groupmode="layer"
     inkscape:label="logo_federationclubalpin_couleur"
     transform="matrix(1.25,0,0,-1.25,-134.48132,607.46388)"><g
       id="g14"
       clip-path="url(#clipPath16)"><g
         id="g1349"
         style="stroke:#000000;stroke-width:1.51181;stroke-miterlimit:4;stroke-dasharray:none;stroke-opacity:1"><g
           id="g20"
           transform="translate(172.1958,437.9062)"
           style="stroke:#000000;stroke-width:1.51181;stroke-miterlimit:4;stroke-dasharray:none;stroke-opacity:1"><path
             d="m 0,0 c 0,0 21.373,40.034 22.804,42.316 1.431,2.283 2.671,4.993 5.535,4.993 2.865,0 4.336,-3.019 6.04,-6.117 1.704,-3.097 39.876,-78.358 39.876,-78.358 l -20.906,1.703 c 0,0 -18.361,35.175 -19.667,37.321 C 31.514,5.42 29.733,5.422 28.107,5.42 26.2,5.417 24.313,5.42 19.59,-2.865 14.781,-11.3 10.298,-19.744 10.298,-19.744 Z"
             style="fill:#4ac0e1;fill-opacity:1;fill-rule:nonzero;stroke:#000000;stroke-width:1.51181;stroke-miterlimit:4;stroke-dasharray:none;stroke-opacity:1"
             id="path22"
             inkscape:connector-curvature="0" /></g><g
           id="g24"
           transform="translate(176.25,400.2646)"
           style="stroke:#000000;stroke-width:1.51181;stroke-miterlimit:4;stroke-dasharray:none;stroke-opacity:1"><path
             d="m 0,0 c 0,0 17.397,32.335 18.772,34.835 1.375,2.5 2.714,5.214 5.167,5.214 2.453,0 3.699,-2.576 5.458,-5.882 C 31.157,30.861 45.908,2.242 45.908,2.242 45.908,2.242 26.499,3.149 0,0"
             style="fill:#737373;fill-opacity:1;fill-rule:nonzero;stroke:#000000;stroke-width:1.51181;stroke-miterlimit:4;stroke-dasharray:none;stroke-opacity:1"
             id="path26"
             inkscape:connector-curvature="0" /></g><g
           id="g28"
           transform="translate(172.5,399.6396)"
           style="stroke:#000000;stroke-width:1.51181;stroke-miterlimit:4;stroke-dasharray:none;stroke-opacity:1"><path
             d="m 0,0 c 0,0 -29.583,-3.583 -58.167,-15.083 0,0 33.818,62.512 35.334,65.166 1.515,2.655 3.687,7.557 6.771,7.506 2.931,-0.048 4.144,-3.133 5.913,-6.569 C -4.098,39.263 8.25,15.166 8.25,15.166 Z"
             style="fill:#00a8d1;fill-opacity:1;fill-rule:nonzero;stroke:#000000;stroke-width:1.51181;stroke-miterlimit:4;stroke-dasharray:none;stroke-opacity:1"
             id="path30"
             inkscape:connector-curvature="0" /></g><g
           id="g210"
           transform="translate(262.6406,391.999)"
           style="stroke:#000000;stroke-width:1.51181;stroke-miterlimit:4;stroke-dasharray:none;stroke-opacity:1"><path
             d="M 0,0 C -0.078,0.016 -0.234,0.187 -0.234,0.187 0.094,0.203 0.109,0.062 0.219,-0.016 0.328,-0.094 0.078,-0.016 0,0 m -1.828,0.187 c -0.141,0 -0.328,-0.046 -0.438,-0.046 -0.109,0 -0.234,0.093 -0.234,0.093 0.047,0 0.297,0.032 0.453,0.047 0.156,0.016 0.188,0.078 0.266,0.047 0.078,-0.031 0.14,-0.109 0.14,-0.109 0,0 -0.046,-0.032 -0.187,-0.032 M -2.75,0.281 C -2.813,0.25 -2.891,0.219 -2.984,0.25 -3.078,0.281 -3.734,0.312 -3.891,0.344 -4.047,0.375 -4.437,0.516 -4.437,0.516 -4.297,0.484 -4,0.453 -3.891,0.437 c 0.11,-0.015 0.282,0 0.469,-0.015 0.188,-0.016 0.422,0 0.547,-0.031 0.125,-0.032 0.187,-0.079 0.125,-0.11 m -0.719,0.578 c 0.078,0.047 0.578,0 0.719,0.016 0.141,0.016 0.437,-0.125 0.484,-0.188 0.047,-0.062 0.047,-0.109 -0.203,0 -0.25,0.11 -1.156,0.11 -1.156,0.11 0,0 0.078,0.015 0.156,0.062 M -5.109,0.5 c -0.141,-0.016 -0.5,0.078 -0.5,0.078 0.187,0 0.468,0.031 0.593,0.016 0.125,-0.016 0.407,-0.016 0.407,-0.016 0,0 -0.36,-0.062 -0.5,-0.078 m -1.032,0.078 c -0.312,0.047 -0.515,0.078 -0.64,0.078 -0.125,0 -0.375,0.047 -0.375,0.047 l -0.078,0.109 c 0.156,0.063 0.265,0.094 0.39,0.094 0.125,0 0.11,-0.015 0.235,-0.062 0.125,-0.047 0.422,-0.157 0.422,-0.157 0,0 0.359,-0.156 0.046,-0.109 M -7.516,0.906 C -7.641,0.859 -7.75,0.875 -7.812,0.859 c -0.063,-0.015 -0.141,0 -0.141,0 0,0 0.25,0.11 0.359,0.125 0.11,0.016 0.172,0.063 0.172,0.063 0,0 0.031,-0.094 -0.094,-0.141 m -1.375,0.141 c 0,0 -0.047,-0.11 -0.109,-0.094 -0.063,0.016 -0.203,0.094 -0.203,0.094 0,0 0.187,0.047 0.297,0.062 0.109,0.016 0.015,-0.062 0.015,-0.062 m -2.906,0.234 c -0.056,0.029 -0.079,0.036 -0.101,0.037 0.087,0.005 0.197,0.01 0.242,0.01 0.078,0 0.093,-0.109 0.093,-0.109 0,0 -0.109,0 -0.234,0.062 m -24.636,3.805 c -61.85,3.907 -113.553,-17.569 -113.553,-17.569 l -3.971,-7.07 0.062,-0.022 -0.011,0.028 c 0,0 1.812,0.453 1.906,0.5 0.094,0.047 2.016,0.625 2.438,0.813 0.421,0.187 2.64,0.953 2.812,1.031 0.172,0.078 1.875,0.562 2.109,0.641 0.235,0.078 0.938,0.234 1.079,0.281 0.14,0.047 0.296,0.078 0.375,0.125 0.078,0.047 0.093,0.125 0.031,0.125 -0.063,0 0.031,0.015 0.14,0.015 0.11,0 0.329,0.141 0.407,0.25 0.078,0.11 0.281,0.297 0.375,0.282 0.093,-0.016 0.765,-0.079 0.843,-0.079 0.079,0 0.204,-0.031 0.266,0.032 0.063,0.062 0.031,0.078 0.047,0.125 0.016,0.047 -0.063,0.156 -0.063,0.156 0,0 0.032,0.094 0.297,0.172 0.266,0.078 2.266,0.609 2.438,0.656 0.172,0.047 1.453,0.359 1.656,0.453 0.203,0.094 0.703,0.25 0.828,0.281 0.125,0.032 0.188,0.047 0.235,0.016 0.046,-0.031 0.093,-0.094 0.171,-0.141 0.079,-0.046 0.172,-0.031 0.172,-0.031 0,0 -0.093,0.031 -0.031,0.125 0.063,0.094 0.172,0.156 0.359,0.235 0.188,0.078 0.735,0.281 0.844,0.328 0.11,0.047 0.141,0.14 0.141,0.14 0,0 0.078,0.063 0.125,0.047 0.047,-0.015 0.156,0.016 0.25,0 0.094,-0.015 0.203,0 0.344,0 0.14,0 0.5,0.156 0.718,0.172 0.219,0.016 0.36,0.047 0.485,0.047 0.125,0 0.187,0.016 0.234,-0.016 0.047,-0.031 0.078,-0.109 0.094,-0.156 0.015,-0.047 0.094,-0.078 0.203,-0.047 0.109,0.031 0.156,0.031 0.203,0.125 0.047,0.094 -0.031,0.203 -0.031,0.203 0,0 0.015,0.063 0.109,0.094 0.094,0.031 1.688,0.5 1.828,0.625 0.141,0.125 0.203,0.234 0.328,0.219 0.125,-0.016 0.329,0.078 0.5,0.094 0.172,0.015 1.782,0.515 2,0.578 0.219,0.062 1.344,0.375 1.547,0.375 0.203,0 0.344,0.093 0.485,0.078 0.14,-0.016 0.156,-0.016 0.187,0.062 0.031,0.078 0.234,0.125 0.344,0.172 0.109,0.047 0.203,0.078 0.25,0.11 0.047,0.031 -0.063,0.125 -0.11,0.125 -0.046,0 -0.25,0.062 -0.25,0.062 0,0 0.047,0.031 0.204,0.094 0.156,0.062 0.75,0.203 0.968,0.25 0.219,0.047 0.344,0.125 0.407,0.062 0.062,-0.062 0.093,-0.093 0.234,-0.093 0.141,0 0.641,0.125 0.766,0.218 0.125,0.094 0.359,0.235 0.437,0.266 0.078,0.031 0.078,0.125 0.078,0.125 0,0 0.047,0.031 0.156,0.078 0.11,0.047 0.469,0.125 0.469,0.125 0,0 -0.344,-0.234 -0.406,-0.297 -0.063,-0.062 -0.141,-0.109 -0.016,-0.14 0.125,-0.032 0.25,-0.016 0.313,0 0.062,0.015 0.312,0.281 0.422,0.343 0.109,0.063 0.437,0.219 0.547,0.235 0.109,0.015 -0.188,-0.11 -0.219,-0.203 -0.031,-0.094 -0.063,-0.172 0.125,-0.11 0.187,0.063 0.515,0.141 0.594,0.156 0.078,0.016 0.046,0.079 0,0.125 -0.047,0.047 -0.204,0.141 -0.063,0.219 0.141,0.078 1.75,0.453 1.75,0.453 l 6.391,1.719 c 0,0 0.25,0.125 0.297,0.078 0.046,-0.047 0.093,-0.125 0.343,-0.078 0.25,0.047 0.594,0.094 0.766,0.172 0.172,0.078 0.422,0.125 0.531,0.109 0.11,-0.015 0.172,-0.015 0.203,-0.078 0.032,-0.062 -0.203,-0.093 -0.203,-0.172 0,-0.078 0.11,-0.062 0.219,-0.093 0.109,-0.032 0.25,-0.032 0.391,0 0.14,0.031 0.062,0.031 0.187,0.156 0.125,0.125 0.172,0.219 0.219,0.266 0.047,0.046 -0.078,0.078 -0.219,0.078 -0.141,0 -0.437,-0.063 -0.312,0.015 0.125,0.078 0.718,0.297 0.843,0.375 0.125,0.078 0.328,0.313 0.391,0.328 0.062,0.016 0.75,0.454 1.266,0.516 0.515,0.063 2.609,0.422 2.859,0.484 0.25,0.063 0.578,0.172 0.516,0.11 -0.063,-0.063 0.078,0 0.296,0.062 0.219,0.063 1.719,0.25 1.922,0.297 0.203,0.047 0.953,0.109 1.125,0.141 0.172,0.031 0.328,0.14 0.422,0.093 0.094,-0.046 -0.109,-0.156 0.156,-0.156 0.266,0 0.407,0.11 0.5,0.203 0.094,0.094 0.719,0.328 0.875,0.344 0.157,0.016 0.86,0.203 1.047,0.219 0.188,0.015 0.578,0.031 0.578,0.031 0,0 -0.125,-0.219 -0.015,-0.187 0.109,0.031 0.484,0.265 0.594,0.328 0.109,0.062 0.703,0.218 0.812,0.25 0.109,0.031 0.578,0.078 0.578,0.078 l -0.047,-0.125 c 0,0 0.375,0.078 0.516,0.078 0.141,0 1.078,0.234 1.078,0.234 0,0 -0.016,-0.062 0.188,-0.093 0.203,-0.032 0.734,0.062 0.968,0.125 0.235,0.062 1.11,0.297 1.235,0.328 0.125,0.031 0.64,0.14 0.828,0.094 0.187,-0.047 0.406,-0.172 0.406,-0.172 0,0 0.594,0.312 0.828,0.375 0.235,0.062 0.985,0.156 1.078,0.203 0.094,0.047 0.313,0.25 0.36,0.219 0.047,-0.032 0,-0.094 0,-0.172 0,-0.078 0.062,-0.11 0.203,0 0.14,0.109 0.5,0.187 0.687,0.187 0.188,0 0.875,-0.062 1.219,-0.047 0.344,0.016 0.484,0.016 0.594,0.094 0.109,0.078 -0.031,0.109 -0.031,0.188 0,0.078 0.015,0.156 0.203,0.14 0.187,-0.015 1.015,0.11 1.187,0.188 0.172,0.078 0.906,0.281 1.031,0.343 0.125,0.063 0.454,0.11 0.61,0.094 0.156,-0.015 0.281,0.031 0.297,-0.094 0.015,-0.125 -0.172,-0.468 0.015,-0.359 0.188,0.109 0.328,0.156 0.36,0.234 0.031,0.079 -0.047,0.157 0.093,0.235 0.141,0.078 0.438,0.125 0.547,0.094 0.11,-0.032 0.016,-0.063 -0.062,-0.125 -0.078,-0.063 0.25,-0.125 0.375,-0.157 0.125,-0.031 0.703,-0.312 0.89,-0.343 0.188,-0.032 0.391,-0.063 0.454,-0.063 0.062,0 -0.079,0.016 -0.079,0.094 0,0.078 0.063,0.094 0.219,0.125 0.156,0.031 0.563,0.031 0.75,0 0.188,-0.031 0.125,-0.078 0.453,-0.063 0.132,0.006 0.298,0.021 0.454,0.034 0.146,0.022 0.292,0.043 0.437,0.064 0.001,0.027 0.002,0.114 0.016,0.168 0.015,0.062 0.093,0.094 0.25,0.078 0.156,-0.016 0.656,-0.078 0.781,-0.031 0.125,0.047 0.547,0.14 0.75,0.14 0.203,0 0.39,0 0.797,0.047 0.406,0.047 0.718,0.078 0.875,0.078 0.156,0 0.156,0.094 0.156,0.094 0,0 0.109,0.078 0.312,0.063 0.171,-0.013 0.985,0.039 1.29,0.066 0.043,0.005 0.085,0.01 0.127,0.015 0.089,0.02 0.414,0.137 0.505,0.137 0.094,0 0.313,-0.015 0.313,-0.015 0,0 0.281,0.156 0.39,0.172 0.11,0.015 0.672,0.078 0.875,0.093 0.204,0.016 0.985,0.063 1.125,0.047 0.07,-0.008 0.036,-0.034 0.001,-0.059 0.295,0.032 0.585,0.06 0.878,0.091 0.137,0.025 0.267,0.038 0.387,0.078 0.188,0.062 0.297,0.343 0.484,0.421 0.188,0.079 0.485,0.219 0.688,0.235 0.203,0.015 0.109,-0.078 0.062,-0.125 -0.046,-0.047 0.032,-0.078 0.188,0 0.156,0.078 0.281,0.14 0.25,0.031 -0.031,-0.109 -0.172,-0.156 -0.156,-0.203 0.015,-0.047 0,-0.047 0.203,0.031 0.203,0.078 0.281,0.141 0.515,0.125 0.235,-0.015 0.719,0 1.11,0.031 0.39,0.032 0.687,0.063 0.687,0.063 0,0 -0.172,-0.016 -0.078,-0.125 0.06,-0.069 0.072,-0.12 0.107,-0.125 0.009,10e-4 0.018,0.002 0.027,0.003 0.018,0.008 0.038,0.019 0.069,0.044 0.141,0.109 0.328,0.062 0.453,0.031 0.054,-0.014 0.122,-0.012 0.188,-0.01 0.143,0.012 0.287,0.026 0.43,0.038 0.002,0.006 0.009,0.01 0.007,0.019 -0.015,0.078 -0.156,0.203 -0.015,0.172 0.14,-0.031 0.062,-0.094 0.312,-0.11 0.25,-0.015 0.985,0.016 1.094,0.032 0.02,0.003 0.234,0.018 0.563,0.043 1.108,0.086 2.207,0.164 3.297,0.235 1.223,0.086 2.265,0.159 2.265,0.159 l 7.359,0.328 1.485,0.016 c 0,0 0.031,0.016 0.094,0.141 0.062,0.125 0.14,0.203 0.343,0.125 0.203,-0.078 0.391,-0.25 0.485,-0.25 0.045,0 0.183,-0.004 0.317,-0.008 1.952,0.035 3.871,0.049 5.759,0.043 0.727,0.007 1.236,0.012 1.236,0.012 l 2.906,-0.032 c 0,0 0.063,0.032 0.157,0.141 0.093,0.109 0.218,0.062 0.297,0.062 0.078,0 2,0.032 2.156,0.047 0.156,0.016 0.812,-0.031 1,-0.093 0.187,-0.063 0.281,-0.188 0.391,-0.188 0.109,0 0.5,0.047 0.671,0.031 0.172,-0.015 1.094,-0.14 1.219,-0.093 0.125,0.046 0.172,0.015 0.266,-0.063 0.038,-0.031 0.104,-0.046 0.177,-0.055 0.212,-0.008 0.425,-0.017 0.636,-0.026 0.245,0.004 0.537,0.013 0.577,0.003 0.063,-0.016 0.094,0.015 0.235,0.062 0.14,0.047 0.812,0 0.875,-0.047 0.055,-0.041 0.092,-0.109 0.165,-0.103 0.012,-0.001 0.024,-0.002 0.036,-0.002 0.086,0.029 0.148,0.059 0.236,0.059 0.094,0 0.375,-0.079 0.375,-0.079 0,0 1.969,-0.125 2.282,-0.125 0.312,0 0.937,-0.093 1.25,0 0.312,0.094 0.89,0.079 0.796,0.063 -0.093,-0.016 0.141,-0.031 0.313,-0.016 0.172,0.016 0.547,0.063 0.734,0.016 0.188,-0.047 0.672,-0.125 0.75,-0.141 0.078,-0.015 0.563,-0.047 0.735,-0.047 0.172,0 0.515,-0.046 0.359,-0.093 -0.101,-0.031 -0.191,-0.078 -0.191,-0.11 0.141,-0.01 0.281,-0.021 0.421,-0.031 0.012,0.01 0.023,0.014 0.036,0.031 0.093,0.125 0.328,0.141 0.421,0.157 0.094,0.015 0.469,0.187 0.391,0.062 -0.078,-0.125 -0.172,-0.219 -0.172,-0.219 0,0 -0.031,-0.074 0.078,-0.088 0.053,-0.004 0.106,-0.007 0.159,-0.011 0.019,-0.002 0.037,-0.003 0.058,-0.005 0.228,-0.018 0.45,-0.037 0.676,-0.056 0.155,0.003 0.329,0.015 0.373,0.004 0.062,-0.016 -0.078,0.016 -0.297,0.109 -0.219,0.094 0.078,0.266 0.141,0.172 0.062,-0.093 0.078,-0.093 0.125,-0.109 0.047,-0.016 0.109,0.047 0.109,0.047 0,0 0.063,0.078 0.109,0.031 0.047,-0.047 -0.078,-0.031 0.047,-0.047 0.125,-0.015 0,-0.047 0.125,-0.015 0.125,0.031 0.188,0.14 0.297,0.078 0.11,-0.063 0.703,-0.203 0.828,-0.25 0.125,-0.047 0.391,-0.157 0.5,-0.172 0.11,-0.016 0.235,-0.063 0.344,0 0.109,0.062 0.25,0.078 0.375,0.062 0.125,-0.015 0.453,-0.109 0.688,-0.078 l 0.234,0.031 c 0,0 0.047,0.204 0.187,0.125 0.141,-0.078 0.063,-0.14 0.282,-0.187 0.218,-0.047 0.297,-0.109 0.297,-0.109 0,0 0,-0.079 -0.188,-0.047 -0.187,0.031 -0.25,0.031 -0.312,0.031 -0.063,0 -0.282,0.016 -0.141,-0.031 10e-4,0 0.003,-0.001 0.004,-0.001 0.247,-0.023 0.488,-0.047 0.733,-0.071 0.053,0.005 0.125,0.007 0.263,-0.006 0.129,-0.013 0.367,-0.045 0.612,-0.078 0.352,-0.034 0.705,-0.068 1.054,-0.102 0.022,0.008 0.044,0.018 0.068,0.039 0.11,0.094 0.063,0.156 0.172,0.078 0.11,-0.078 0.125,-0.156 0.235,-0.156 0.108,0 1.55,-0.151 1.708,-0.186 0.014,-0.002 0.027,-0.003 0.042,-0.005 0.133,-0.019 0.365,0.021 0.453,0.05 0.094,0.031 0.078,0.125 0.234,0.063 0.156,-0.063 0.125,-0.094 0.219,-0.157 0.043,-0.028 0.044,-0.046 0.06,-0.059 1.523,-0.165 3.007,-0.333 4.45,-0.503 0.153,-0.013 0.32,0.031 0.427,0.016 0.11,-0.016 0.078,0.031 0.266,0.015 0.187,-0.015 0.25,0.016 0.344,-0.047 0.067,-0.045 0.12,-0.091 0.19,-0.129 0.335,-0.04 0.666,-0.08 0.996,-0.12 0.004,0 0.013,-0.001 0.017,-0.001 0.203,0 0.422,-0.046 0.422,-0.046 L 2.82,-0.58 c 0,0 -7.618,3.667 -39.253,5.666"
             style="fill:#cd3a30;fill-opacity:1;fill-rule:nonzero;stroke:#000000;stroke-width:1.51181;stroke-miterlimit:4;stroke-dasharray:none;stroke-opacity:1"
             id="path212"
             inkscape:connector-curvature="0" /></g></g></g></g></svg>
