<?xml version="1.0" encoding="UTF-8" standalone="no"?>
<!-- Created with Inkscape (http://www.inkscape.org/) -->

<svg
   width="5.6930299cm"
   height="5.6930299cm"
   id="svg4771"
   version="1.1"
   inkscape:version="1.1 (c4e8f9ed74, 2021-05-24)"
   sodipodi:docname="Framasoft_Logo.svg"
   xmlns:inkscape="http://www.inkscape.org/namespaces/inkscape"
   xmlns:sodipodi="http://sodipodi.sourceforge.net/DTD/sodipodi-0.dtd"
   xmlns="http://www.w3.org/2000/svg"
   xmlns:svg="http://www.w3.org/2000/svg"
   xmlns:rdf="http://www.w3.org/1999/02/22-rdf-syntax-ns#"
   xmlns:cc="http://creativecommons.org/ns#"
   xmlns:dc="http://purl.org/dc/elements/1.1/">
  <defs
     id="defs4773" />
  <sodipodi:namedview
     id="base"
     pagecolor="#ffffff"
     bordercolor="#666666"
     borderopacity="1.0"
     inkscape:pageopacity="0.0"
     inkscape:pageshadow="2"
     inkscape:zoom="2.3906279"
     inkscape:cx="25.934609"
     inkscape:cy="137.62075"
     inkscape:current-layer="layer1"
     showgrid="true"
     inkscape:document-units="px"
     inkscape:grid-bbox="true"
     inkscape:window-width="1908"
     inkscape:window-height="1007"
     inkscape:window-x="4"
     inkscape:window-y="4"
     inkscape:window-maximized="0"
     inkscape:pagecheckerboard="0"
     units="cm" />
  <metadata
     id="metadata4776">
    <rdf:RDF>
      <cc:Work
         rdf:about="">
        <dc:format>image/svg+xml</dc:format>
        <dc:type
           rdf:resource="http://purl.org/dc/dcmitype/StillImage" />
      </cc:Work>
    </rdf:RDF>
  </metadata>
  <g
     id="layer1"
     inkscape:label="Layer 1"
     inkscape:groupmode="layer"
     transform="translate(-5.8010385,-5.8010385)">
    <g
       id="g1089"
       transform="matrix(1.3357031,0,0,1.3357031,-36.255096,-14.701016)">
      <g
         id="g1076">
        <path
           id="path2885-0"
           style="display:inline;fill:#6a5687;fill-opacity:1;stroke:#6a5687;stroke-width:1.12917;stroke-miterlimit:4;stroke-dasharray:none;stroke-opacity:1"
           d="m 55.218171,80.940261 c -0.688611,-2.981891 -0.03449,-6.242431 1.842221,-8.674017 2.365965,-3.275508 6.705799,-4.749198 10.628319,-4.14951 3.897445,0.64179 7.30738,3.655462 8.320311,7.490783 0.905136,2.973413 0.600646,6.354321 -1.144556,8.96931 -1.609602,2.635418 -4.465712,4.354013 -7.496267,4.794917 -3.09371,0.576482 -6.391179,-0.357609 -8.744284,-2.441285 -1.795759,-1.524103 -2.948146,-3.695625 -3.405744,-5.990198 z"
           inkscape:connector-curvature="0"
           inkscape:export-filename="/home/josephk/Bureau/www/framacss/img/biglogo.png"
           inkscape:export-xdpi="97.71096"
           inkscape:export-ydpi="97.71096" />
        <g
           style="display:inline;fill:#eb7239;fill-opacity:1"
           transform="matrix(0.30347954,0,0,0.30347954,54.323142,-138.15624)"
           id="g3934"
           inkscape:export-filename="/home/josephk/Bureau/www/framacss/img/biglogo.png"
           inkscape:export-xdpi="97.71096"
           inkscape:export-ydpi="97.71096">
          <path
             sodipodi:nodetypes="ccccccccccc"
             inkscape:connector-curvature="0"
             id="path3926"
             d="m 266.05688,662.62964 c -5.06605,1.49312 2.53872,6.05651 3.03822,8.98435 1.40892,2.9493 4.36632,4.98744 6.806,7.12979 4.36237,3.28368 8.50309,7.00504 13.73127,8.87149 7.24409,4.97783 11.06985,11.74361 12.96634,24.70447 -9.08991,-2.17901 -15.96923,-2.83244 -31.39817,-12.58792 16.07761,13.45629 25.98461,19.2946 31.91959,24.61446 5.75253,6.20655 16.11417,16.71079 26.033,32.33675 0.0472,-20.28344 -8.50609,-45.21733 -19.52164,-62.22272 -10.33801,-13.68807 -24.56125,-24.25619 -40.18044,-31.18242 -1.07809,-0.41847 -2.22799,-0.72036 -3.39417,-0.64825 z"
             style="fill:#eb7239;fill-opacity:1;stroke:none" />
        </g>
        <path
           id="path2885-07"
           style="display:inline;fill:#6a5687;fill-opacity:1;stroke:#6a5687;stroke-width:1.03107;stroke-miterlimit:4;stroke-dasharray:none;stroke-opacity:1"
           d="m 70.432163,108.305 c -0.521613,-2.25874 -0.0261,-4.72851 1.395424,-6.57037 1.792143,-2.481062 5.079458,-3.597359 8.050692,-3.143042 2.952218,0.486073 5.535067,2.768842 6.302351,5.673972 0.685618,2.25233 0.454939,4.81326 -0.866913,6.79403 -1.219253,1.99624 -3.382704,3.29804 -5.678259,3.63197 -2.343405,0.43669 -4.841139,-0.27087 -6.623559,-1.84917 -1.360218,-1.15445 -2.233095,-2.79932 -2.579736,-4.53739 z"
           inkscape:connector-curvature="0"
           inkscape:export-filename="/home/josephk/Bureau/www/framacss/img/biglogo.png"
           inkscape:export-xdpi="97.71096"
           inkscape:export-ydpi="97.71096" />
        <path
           id="path2885-0-6"
           style="display:inline;fill:#eb7239;fill-opacity:1;stroke:#eb7239;stroke-width:0.981939;stroke-miterlimit:4;stroke-dasharray:none;stroke-opacity:1"
           d="m 156.95907,121.49849 c -1.18657,-0.44892 -2.56238,-0.36182 -3.66574,0.2737 -1.47728,0.78948 -2.32434,2.49014 -2.29646,4.13485 0.0467,1.63674 1.09464,3.20531 2.61371,3.83501 1.17105,0.53742 2.57682,0.60062 3.7482,0.0292 1.17224,-0.51443 2.03729,-1.59198 2.38716,-2.81231 0.4091,-1.23875 0.20908,-2.64531 -0.51587,-3.72798 -0.52606,-0.82254 -1.35389,-1.41686 -2.271,-1.73263 z"
           inkscape:connector-curvature="0"
           inkscape:export-filename="/home/josephk/Bureau/www/framacss/img/biglogo.png"
           inkscape:export-xdpi="97.71096"
           inkscape:export-ydpi="97.71096" />
        <path
           id="path2885-07-2"
           style="display:inline;fill:#eb7239;fill-opacity:1;stroke:#eb7239;stroke-width:0.981939;stroke-miterlimit:4;stroke-dasharray:none;stroke-opacity:1"
           d="m 152.82922,136.7748 c -0.98431,-0.37241 -2.12559,-0.30018 -3.0409,0.22704 -1.22546,0.65492 -1.92815,2.06569 -1.90499,3.43008 0.0385,1.35775 0.90803,2.65891 2.16816,3.18129 0.97146,0.44581 2.13759,0.49822 3.10931,0.0244 0.9724,-0.42675 1.68999,-1.32063 1.98023,-2.33297 0.33939,-1.02758 0.1734,-2.19439 -0.4279,-3.09251 -0.4364,-0.68233 -1.12314,-1.17533 -1.88389,-1.43728 z"
           inkscape:connector-curvature="0"
           inkscape:export-filename="/home/josephk/Bureau/www/framacss/img/biglogo.png"
           inkscape:export-xdpi="97.71096"
           inkscape:export-ydpi="97.71096" />
        <path
           id="path2885-07-0"
           style="display:inline;fill:#6a5687;fill-opacity:1;stroke:#6a5687;stroke-width:0.750752;stroke-miterlimit:4;stroke-dasharray:none;stroke-opacity:1"
           d="m 83.384992,131.41706 c -0.37981,-1.64467 -0.01916,-3.44297 1.016069,-4.7841 1.304896,-1.80653 3.698475,-2.61932 5.861926,-2.28853 2.149608,0.35392 4.030243,2.01606 4.58893,4.1314 0.499221,1.63997 0.331266,3.50465 -0.631229,4.94692 -0.887749,1.45353 -2.463031,2.40141 -4.134494,2.64455 -1.706309,0.31797 -3.524987,-0.19735 -4.822818,-1.34643 -0.990419,-0.84059 -1.625983,-2.03829 -1.878384,-3.30381 z"
           inkscape:connector-curvature="0"
           inkscape:export-filename="/home/josephk/Bureau/www/framacss/img/biglogo.png"
           inkscape:export-xdpi="97.71096"
           inkscape:export-ydpi="97.71096" />
      </g>
      <g
         id="g1067">
        <g
           transform="matrix(3.8392493,0.07961337,0.08313289,-3.6767102,-875.80468,2062.3493)"
           style="display:inline;fill:#000000;fill-opacity:1;stroke:#000000;stroke-width:0.399286;stroke-miterlimit:4;stroke-dasharray:none;stroke-opacity:1"
           id="g2891-9-4-3-4">
          <path
             style="fill:#000000;fill-opacity:1;stroke:#000000;stroke-width:4.94435;stroke-miterlimit:4;stroke-dasharray:none;stroke-opacity:1"
             d="m 674.375,-578.53125 c -2.88874,0.13382 -4.02185,1.21162 -0.4375,3.8125 16.75952,7.72369 34.50437,14.0216 49.5625,24.6875 33.69135,23.86404 55.37724,58.45628 66.46875,98.4375 6.4711,23.32625 5.50182,37.53462 9.3125,61 2.49985,14.10302 9.6008,32.64797 17.25,48.46875 10.34609,25.13897 26.03497,48.36096 41.8125,65.125 17.45317,17.33638 45.94157,36.88089 88.125,47.84375 17.51897,3.93804 27.59779,5.58745 32.28125,5.5 6.82876,1.83509 14.46693,2.06633 8.3125,-2.84375 -17.50502,-9.04305 -39.44068,-17.05625 -51.65625,-28.6875 -30.08055,-28.64143 -51.26922,-62.9643 -61.4375,-106.0625 -3.8576,-16.35056 -5.76057,-32.23727 -7.25,-45.90625 0.44893,-11.80125 1.76861,-24.10565 3.71875,-37.25 2.21078,-17.66517 14.05408,-32.18976 25.125,-43.34375 10.24538,-6.90474 18.86015,-9.99947 26.46875,-8.375 11.36409,2.56284 36.38452,7.96249 50.34375,8.34375 5.66185,-12.76922 -6.62196,-30.22377 -21.375,-42.15625 26.01322,-13.31492 50.7253,-19.35509 64.125,-23.34375 10.5249,-3.23303 -18.05733,-0.9422 -32.625,1.5 -19.55453,2.83292 -37.31898,4.61888 -54.8125,8.71875 -13.42363,-6.6494 -27.18496,-8.56114 -40.21875,-7.125 -7.20259,0.1264 -15.61695,1.66179 -21.65625,4.0625 -17.28316,6.75404 -36.20675,22.02737 -42.5625,36.5 -0.96011,1.43594 -1.96534,3.43123 -3,5.75 -5.17922,-8.28599 -11.05274,-15.78098 -17.40625,-22.03125 -30.81145,-30.79903 -73.31665,-36.0387 -115.03125,-49.71875 -3.10645,-1.69535 -9.72341,-3.0783 -13.4375,-2.90625 z M 889.25,-549.625 c 7.40203,0.003 13.28548,1.62505 13.5625,5.5 3.07504,8.29747 -15.17482,15.98417 -24.53125,18.59375 -11.46641,3.02402 -24.78893,11.34632 -33.21875,19.0625 -9.47256,6.82698 -20.87876,23.91281 -25.5625,34.3125 -17.58852,31.33288 -4.02166,-24.00528 4.5625,-36.84375 6.35575,-14.47263 25.27934,-29.77721 42.5625,-36.53125 6.30796,-2.50751 15.22297,-4.09641 22.625,-4.09375 z"
             transform="matrix(0.07900954,0.00171083,0.00178646,-0.08250237,179.0648,504.56302)"
             id="path2893-7-8-3-8"
             inkscape:connector-curvature="0" />
        </g>
      </g>
    </g>
    <circle
       style="fill:none;fill-opacity:0.786268;stroke:#000000;stroke-width:3.77953;stroke-miterlimit:4;stroke-dasharray:none;paint-order:stroke fill markers"
       id="path863"
       cx="113.38586"
       cy="113.38586"
       r="105.69505" />
  </g>
</svg>
