<?xml version="1.0" encoding="UTF-8" standalone="no"?>
<!-- Created with Inkscape (http://www.inkscape.org/) -->

<svg
   version="1.1"
   id="svg2"
   width="750"
   height="1000"
   viewBox="0 0 750 1000"
   sodipodi:docname="latex.svg"
   inkscape:version="1.1 (c4e8f9ed74, 2021-05-24)"
   xmlns:inkscape="http://www.inkscape.org/namespaces/inkscape"
   xmlns:sodipodi="http://sodipodi.sourceforge.net/DTD/sodipodi-0.dtd"
   xmlns="http://www.w3.org/2000/svg"
   xmlns:svg="http://www.w3.org/2000/svg">
  <defs
     id="defs6" />
  <sodipodi:namedview
     id="namedview4"
     pagecolor="#ffffff"
     bordercolor="#999999"
     borderopacity="1"
     inkscape:pageshadow="0"
     inkscape:pageopacity="0"
     inkscape:pagecheckerboard="0"
     showgrid="false"
     inkscape:zoom="45.254834"
     inkscape:cx="376.9763"
     inkscape:cy="470.46908"
     inkscape:window-width="1912"
     inkscape:window-height="1011"
     inkscape:window-x="4"
     inkscape:window-y="4"
     inkscape:window-maximized="1"
     inkscape:current-layer="g8" />
  <g
     inkscape:groupmode="layer"
     inkscape:label="Image"
     id="g8">
    <path
       style="fill:#000000"
       d="M 338.5,911.94695 C 318.7,900.4697 298.675,888.84701 294,886.11875 289.325,883.39049 235.775,852.49639 175,817.4652 114.225,782.434 52.8,747.0277 38.5,738.78453 24.2,730.54136 9.6953616,722.15513 6.2674703,720.14847 L 0.03494058,716.5 V 500 283.5 L 6.2674703,279.85166 C 9.6953616,277.84507 26.9,267.90102 44.5,257.75376 c 17.6,-10.14725 60.35,-34.79816 95,-54.77979 34.65,-19.98163 78.975,-45.53522 98.5,-56.78576 19.525,-11.25053 42.7,-24.6232 51.5,-29.71705 8.8,-5.09384 31.67531,-18.301832 50.83401,-29.351089 l 34.83402,-20.089558 29.16598,16.84608 C 420.37531,93.141937 438,103.32313 443.5,106.50146 c 5.5,3.17834 28.9,16.68801 52,30.02149 23.1,13.33348 50.775,29.30786 61.5,35.49863 10.725,6.19076 32.775,18.9174 49,28.28142 16.225,9.36403 33.1,19.10742 37.5,21.65199 4.4,2.54457 30.1625,17.42001 57.25,33.05655 L 750,283.4416 v 216.55226 216.55227 l -45.25,26.1299 c -24.8875,14.37144 -52.45,30.29368 -61.25,35.38274 -8.8,5.08907 -36.025,20.80366 -60.5,34.92131 -41.59005,23.98994 -116.82357,67.41422 -139.5,80.51846 -55.39988,32.01443 -68.42775,39.48851 -68.69238,39.4088 C 374.63843,932.85638 358.3,923.4242 338.5,911.94695 Z m 121,-58.97751 C 624.8152,757.62285 692.45563,718.5938 710,708.429 l 12.5,-7.24221 V 500 298.81321 L 710,291.571 C 696.69798,283.86412 682.46401,275.64732 595.5,225.47398 565.25,208.02143 521.375,182.70228 498,169.2092 474.625,155.71613 437.42071,134.24178 415.32381,121.48843 L 375.14762,98.30052 348.32381,113.78766 C 333.57071,122.30559 309.8,136.0085 295.5,144.23858 c -14.3,8.23007 -30.5,17.57909 -36,20.7756 -10.09685,5.86811 -55.51843,32.05269 -153.5,88.4895 -29.425,16.94863 -59.125,34.0768 -66,38.06261 l -12.5,7.24692 v 201.19223 201.19222 l 16,9.24732 c 26.046159,15.05357 116.08365,66.96164 177,102.04336 15.95,9.1856 33.5,19.30451 39,22.48647 15.73409,9.10278 39.44203,22.77777 58.5,33.74343 9.625,5.53808 26.49387,15.25887 37.48638,21.60176 11.30963,6.52588 20.42643,11.18759 21,10.73799 C 377.04387,900.621 414.4,878.98115 459.5,852.96944 Z M 125.60699,734.41821 c -0.85253,-2.22166 -0.98855,-2.0271 3.14301,-4.49581 12.42927,-7.4268 15.0522,-14.86629 9.49869,-26.9414 C 136.6093,699.41645 120.17961,670.4 101.73827,638.5 78.223738,597.82434 66.749768,578.93185 63.324667,575.25 58.545785,570.11289 58.319326,570 52.793047,570 c -4.469103,0 -6.999088,0.70438 -12.123228,3.37526 -6.421478,3.34711 -6.483404,3.35757 -7.421909,1.2543 -0.849983,-1.90488 -0.223139,-2.53571 6.152845,-6.19198 3.904585,-2.23907 20.547215,-11.84472 36.983623,-21.34589 22.873649,-13.22227 30.083852,-16.96014 30.734692,-15.93328 1.49016,2.35114 0.9599,3.28769 -3.20989,5.66929 -9.027481,5.15609 -15.826777,13.69169 -15.887218,19.94426 -0.01208,1.24957 1.261071,5.10162 2.829222,8.56011 3.57312,7.88034 66.177006,116.47581 70.849796,122.89918 2.41266,3.31652 4.54767,5.06257 7.14006,5.83927 4.57908,1.37193 8.5467,-0.25338 28.06255,-11.49562 26.45787,-15.24124 34.86008,-22.37952 39.28247,-33.37327 2.05071,-5.09792 2.29464,-7.36816 2.30375,-21.44077 0.008,-12.52434 0.29474,-15.84829 1.40332,-16.27353 0.76622,-0.29393 1.62206,-0.30548 1.90186,-0.0257 0.2798,0.27981 3.07745,12.02126 6.21701,26.09213 l 5.70828,25.58339 -2.11014,1.3157 c -2.64221,1.64744 -111.09278,64.16545 -118.691,68.42126 -6.46547,3.62135 -6.51131,3.63103 -7.31215,1.54408 z m 50.92443,-73.36737 c -0.36898,-0.59703 1.13199,-3.13367 3.33549,-5.63698 7.07025,-8.03223 7.28609,-3.05208 -4.2839,-98.84266 -4.11402,-34.06085 -7.25164,-62.29835 -6.9725,-62.75 0.27914,-0.45166 1.15743,-0.8212 1.95175,-0.8212 0.79432,0 19.02232,13.3875 40.50665,29.75 64.72404,49.29392 73.73321,55.9725 79.13863,58.66613 5.89655,2.93838 12.04209,3.34206 17.31814,1.13759 3.13588,-1.31026 3.5474,-1.28568 4.37533,0.26131 0.7801,1.45763 -2.74664,3.81378 -24.09227,16.0956 -19.11737,10.99973 -25.20179,14.07144 -25.83694,13.04374 -0.57237,-0.92612 0.54702,-2.62734 3.5987,-5.4692 3.63071,-3.38108 4.4295,-4.76427 4.4295,-7.6702 0,-2.08019 -0.86235,-4.64155 -2.08677,-6.19815 -1.93182,-2.45592 -20.06325,-17.04811 -26.08817,-20.99579 l -2.6331,-1.72528 -23.84598,13.71362 c -13.11529,7.54248 -24.22079,14.03825 -24.6789,14.43504 -0.89357,0.77396 1.83531,26.82076 3.50508,33.45559 2.0412,8.1107 7.91101,10.58122 16.55709,6.96866 3.66046,-1.52944 6.27075,-1.36173 6.27075,0.40288 0,0.84086 -34.15747,21.10666 -38.14885,22.6339 -0.90687,0.347 -1.95074,0.14243 -2.31973,-0.4546 z m 35.81128,-84.51305 20.68903,-11.9622 -3.23535,-2.5378 c -1.77945,-1.39578 -13.54886,-10.36528 -26.15425,-19.9322 -22.32744,-16.94553 -22.90351,-17.30682 -22.32268,-14 0.32792,1.86692 1.98261,15.54441 3.6771,30.39441 3.62444,31.76366 3.63498,31.82423 5.35793,30.78422 0.71455,-0.43132 10.60925,-6.16721 21.98822,-12.74643 z m 122.63552,37.42151 c -0.62714,-1.17183 -0.9913,-2.23172 -0.80924,-2.35531 0.18206,-0.1236 2.71875,-1.72316 5.63708,-3.55457 6.5942,-4.13824 10.21325,-8.77453 10.9112,-13.97809 0.74432,-5.54935 -1.92391,-10.8566 -29.19872,-58.07767 C 308.97223,514.27214 292.88004,486.375 285.7581,474 c -7.12194,-12.375 -13.57932,-23.49406 -14.34974,-24.70902 -1.39884,-2.20599 -1.41822,-2.19887 -14.15456,5.20149 -22.97019,13.34668 -27.11266,17.8671 -28.02548,30.58249 -0.46294,6.44868 1.60836,16.77961 3.93077,19.6053 1.14563,1.3939 -2.9181,4.02311 -4.115,2.66238 -0.40765,-0.46345 -5.0676,-9.25378 -10.35544,-19.53407 l -9.61425,-18.69143 3.2128,-1.9452 c 2.87949,-1.74339 77.40186,-44.79568 116.4055,-67.24858 l 15.1927,-8.74585 10.72843,16.66125 c 5.90063,9.16368 11.35705,17.64151 12.12538,18.83962 1.25532,1.95751 1.18444,2.29211 -0.69899,3.3001 -1.86005,0.99546 -2.67338,0.48992 -7.22631,-4.49172 -9.24966,-10.12059 -20.63216,-13.62918 -31.8553,-9.81919 C 320.81548,417.75301 294,432.75355 294,434.10457 c 0,1.39575 70.66543,123.67084 76.60269,132.54855 2.99896,4.48422 6.54938,8.87172 7.8898,9.75 4.11385,2.6955 11.37705,2.04465 18.78391,-1.6832 6.23311,-3.13711 6.56829,-3.19825 7.68968,-1.40262 0.64487,1.0326 0.97179,2.07817 0.72648,2.32348 -0.24531,0.24531 -5.33899,3.26599 -11.31929,6.71263 -5.9803,3.44663 -20.09827,11.58123 -31.37327,18.07688 -11.275,6.49565 -21.93584,12.67637 -23.69076,13.73494 -3.18117,1.91888 -3.19419,1.91826 -4.33102,-0.20593 z m 100.5611,-6.7093 c -0.43549,-1.12962 -0.0677,-2.1045 1.0375,-2.75 4.62847,-2.7033 10.1314,-7.42719 12.16177,-10.44005 2.95996,-4.39229 2.86635,-9.21495 -0.31173,-16.05995 -1.40449,-3.025 -17.48759,-31.35786 -35.74023,-62.96191 C 375.74722,451.07831 373.59224,448 365.7565,448 c -3.32904,0 -6.48849,0.97853 -11.36292,3.51925 -5.13163,2.67479 -6.94506,3.21469 -7.55735,2.25 -1.47685,-2.32681 -0.8539,-3.25071 3.92218,-5.81706 2.60788,-1.40129 29.86933,-17.07355 60.58101,-34.82725 30.71167,-17.75369 56.10929,-32.00957 56.43913,-31.67972 0.32985,0.32985 5.20809,7.66898 10.84054,16.30919 7.60264,11.66249 9.96971,16.03613 9.18842,16.97753 -1.78354,2.14903 -3.17974,1.46822 -8.84167,-4.3113 -10.2335,-10.44604 -18.80857,-12.46003 -30.34866,-7.12786 -4.1531,1.91896 -50.39903,28.06101 -53.3279,30.14537 -0.1159,0.0825 1.50301,3.05513 3.59756,6.6059 2.09456,3.55077 10.22432,17.59345 18.06613,31.20595 7.84181,13.6125 14.59867,24.75 15.01523,24.75 1.40017,0 37.47709,-21.18108 42.6282,-25.02739 2.80302,-2.093 5.84052,-5.37358 6.75,-7.29016 2.26038,-4.76339 2.07497,-12.48122 -0.46279,-19.26399 -1.74862,-4.67359 -1.87895,-5.80682 -0.75,-6.52125 0.75151,-0.47559 1.69797,-0.75951 2.10324,-0.63095 0.40527,0.12856 7.72875,12.3261 16.2744,27.10566 14.1749,24.51527 15.3852,26.98331 13.80051,28.14207 -1.52345,1.11397 -2.51961,0.42488 -8.10159,-5.60416 -11.34222,-12.25065 -16.17704,-11.86196 -42.86433,3.44606 C 437.1097,504.2579 437,504.32482 437,505.20688 c 0,0.87263 28.47597,50.4472 33.59103,58.47951 6.5857,10.34171 9.13048,9.98928 34.80898,-4.82067 29.80895,-17.19216 34.86791,-21.94834 37.9981,-35.72391 C 545.17522,515.32096 546.66479,495 545.46096,495 c -0.45848,0 -5.28108,2.51818 -10.71687,5.59596 -9.12964,5.16924 -9.98075,5.46265 -11.16153,3.84784 -1.11771,-1.52856 -0.57001,-2.45635 4.36083,-7.38719 6.40143,-6.40143 12.92256,-18.54781 15.58195,-29.0232 C 545.09518,461.84975 557,384.87695 557,380.91052 557,379.85973 556.60783,379 556.12852,379 c -0.47931,0 -12.06681,-5.4407 -25.75,-12.09044 C 481.29431,343.05567 473.37407,339.94086 460,339.23164 c -7.31052,-0.38767 -9.61471,-0.0764 -16.46565,2.22413 -7.49596,2.51716 -8.04077,2.57214 -9.23967,0.93255 -0.70071,-0.95827 -1.16616,-1.83671 -1.03435,-1.95208 0.54234,-0.47467 69.97814,-40.5082 72.70347,-41.91752 2.80651,-1.45131 3.02066,-1.41626 4.14128,0.67762 0.92138,1.72161 0.90847,2.29914 -0.0586,2.6215 -2.2504,0.75013 -8.12254,6.42855 -9.59757,9.28094 -0.79691,1.54105 -1.44892,3.91472 -1.44892,5.27483 0,5.2531 4.33792,8.22032 33.19841,22.70832 15.39888,7.73026 28.1155,13.91171 28.25913,13.73654 0.30026,-0.36614 7.0776,-46.52707 8.50519,-57.92933 1.51794,-12.12397 -0.85015,-17.3475 -8.42152,-18.57617 -2.86249,-0.46451 -5.0683,0.0492 -9.68374,2.25515 -5.06514,2.42092 -6.11799,2.63361 -6.90187,1.39429 -1.76995,-2.79834 -5.5121,-0.28047 36.90628,-24.83208 17.93337,-10.37978 19.45833,-11.07468 20.66928,-9.4186 1.15794,1.58357 0.7089,2.32143 -3.92768,6.45394 -6.15443,5.48536 -11.15946,14.29322 -13.80282,24.29024 -1.02441,3.87425 -4.10325,23.01909 -6.84188,42.54409 -2.73862,19.525 -5.16455,36.31421 -5.39095,37.30936 -0.34021,1.49538 5.95202,4.93574 36.26027,19.82578 62.14361,30.53035 68.48311,32.6801 82.1719,27.86486 6.83394,-2.40394 6.71415,-2.40262 7.9532,-0.0874 0.92795,1.73389 -2.24943,3.80043 -34.01469,22.12292 -33.1382,19.11441 -35.11507,20.10881 -36.45471,18.33745 -1.26072,-1.66698 -1.17282,-2.03785 0.79936,-3.37292 6.36759,-4.31053 8.91475,-7.57621 9.42243,-12.08039 0.86953,-7.71444 -0.89756,-9.00881 -36.84862,-26.99115 C 583.3423,393.16781 568.61116,386 568.1211,386 c -0.49006,0 -1.38237,3.4875 -1.9829,7.75 -7.79161,55.3034 -9.22954,66.9496 -8.6485,70.04678 0.88291,4.70631 5.47419,9.20322 9.39636,9.20322 1.67194,0 5.36506,-0.91649 8.20693,-2.03665 2.84187,-1.12016 5.23586,-1.90766 5.31999,-1.75 0.0841,0.15766 0.70264,1.01019 1.37448,1.89452 1.06494,1.40177 -0.82782,2.78846 -14.76592,10.81792 -8.7931,5.06552 -16.21366,9.57605 -16.49013,10.02339 -0.27648,0.44735 1.51114,11.10429 3.97249,23.68209 2.46134,12.5778 4.47988,22.95498 4.48563,23.0604 C 559.02137,539.27458 438.0851,609 437.04222,609 c -0.45553,0 -1.13184,-0.7875 -1.5029,-1.75 z"
       id="path925" />
  </g>
</svg>
