<svg id="Calque_1" data-name="Calque 1" xmlns="http://www.w3.org/2000/svg" xmlns:xlink="http://www.w3.org/1999/xlink" viewBox="0 0 1000 1000"><defs><style>.cls-1{fill:url(#Dégradé_sans_nom_30);}.cls-2{fill:#f7f7f7;}.cls-3{fill:none;stroke:#fff;stroke-linecap:round;stroke-width:9px;}.cls-3,.cls-9{stroke-miterlimit:10;}.cls-4,.cls-6{fill:#3a3a3a;}.cls-4{opacity:0.13;}.cls-5{fill:#d8d8d8;}.cls-7{fill:#c1bfbf;}.cls-8{fill:#aaa;}.cls-9{fill:#4abaff;stroke:#3a3a3a;stroke-width:11px;}</style><linearGradient id="Dégradé_sans_nom_30" y1="500" x2="1000" y2="500" gradientUnits="userSpaceOnUse"><stop offset="0" stop-color="#de4a9b"/><stop offset="0.16" stop-color="#e05296"/><stop offset="0.39" stop-color="#e66689"/><stop offset="0.68" stop-color="#ef8874"/><stop offset="1" stop-color="#fcb756"/></linearGradient></defs><title>Logo MP2I couleur 2</title><rect class="cls-1" width="1000" height="1000" transform="translate(1000 1000) rotate(180)"/><path class="cls-2" d="M522.87,487.15H446.79V353.2l-67.17,134H342.79L275.62,354V487.15H199.54V216h82.15L361,372.22,440.72,216h82.15Z"/><path class="cls-2" d="M701.32,216c60.29,0,99.14,38.85,99.14,95.5,0,59.08-41.28,98.33-104.81,98.33H638.59v77.3H560.9V216Zm-15,132.33c21.45,0,37.64-13.76,37.64-34.81,0-19.42-16.19-33.18-37.64-33.18H638.59v68Z"/><path class="cls-2" d="M408.75,784h-206V733.27l95-84.64c18-16.37,33.13-29.54,33.13-48.71,0-15.57-10.78-26.35-26.35-26.35-18,0-30.74,11.18-32.34,37.93l-72.66-13.57c2.79-54.7,43.92-87.44,103.81-87.44,59.48,0,101.41,33.14,101.41,89.43,0,37.53-20.77,59.09-53.5,88.24L316.52,718.1h92.23Z"/><path class="cls-2" d="M446.21,784V516.48h76.66V784Z"/><line class="cls-3" x1="646.94" y1="515.17" x2="646.94" y2="611.81"/><line class="cls-3" x1="693.69" y1="557.49" x2="693.69" y2="647.24"/><line class="cls-3" x1="693.69" y1="463.35" x2="693.69" y2="510.94"/><line class="cls-3" x1="740.45" y1="493.31" x2="740.45" y2="587.35"/><path class="cls-4" d="M775.28,784H574.08a8.53,8.53,0,0,1,0-17.06h201.2a8.53,8.53,0,1,1,0,17.06Z"/><rect class="cls-5" x="572.52" y="607" width="212.87" height="127.48" rx="2.9" transform="translate(172.22 -138.02) rotate(13.28)"/><rect class="cls-5" x="602.1" y="748.79" width="113.31" height="15.04" rx="2.9" transform="translate(191.34 -131.09) rotate(13.28)"/><path class="cls-6" d="M589.59,592.37H775.22A13.62,13.62,0,0,1,788.84,606V719.85a0,0,0,0,1,0,0H576a0,0,0,0,1,0,0V606a13.62,13.62,0,0,1,13.62-13.62Z" transform="translate(168.95 -139.21) rotate(13.28)"/><polygon class="cls-7" points="698.12 757.88 623.36 740.23 631 730.87 635.08 725.88 694.06 739.8 695.47 746.09 698.12 757.88"/><polygon class="cls-8" points="695.47 746.09 631 730.87 635.08 725.88 694.06 739.8 695.47 746.09"/><path class="cls-9" d="M790.12,635.62l-20.67,87.59A12,12,0,0,1,755,732.12L583.71,691.69a12,12,0,0,1-8.91-14.42l20.67-87.58a12.67,12.67,0,0,1,15.2-9.4l170.06,40.14A12.66,12.66,0,0,1,790.12,635.62Z"/></svg>