<?xml version="1.0" encoding="UTF-8" standalone="no"?>
<svg
   id="Layer_1"
   data-name="Layer 1"
   viewBox="0 0 222.92365 227.4852"
   version="1.1"
   sodipodi:docname="overleaf.svg"
   width="5.8981886cm"
   height="6.0188794cm"
   inkscape:version="1.1 (c4e8f9ed74, 2021-05-24)"
   xmlns:inkscape="http://www.inkscape.org/namespaces/inkscape"
   xmlns:sodipodi="http://sodipodi.sourceforge.net/DTD/sodipodi-0.dtd"
   xmlns="http://www.w3.org/2000/svg"
   xmlns:svg="http://www.w3.org/2000/svg"
   xmlns:rdf="http://www.w3.org/1999/02/22-rdf-syntax-ns#"
   xmlns:cc="http://creativecommons.org/ns#"
   xmlns:dc="http://purl.org/dc/elements/1.1/">
  <sodipodi:namedview
     id="namedview16"
     pagecolor="#ffffff"
     bordercolor="#999999"
     borderopacity="1"
     inkscape:pageshadow="0"
     inkscape:pageopacity="0"
     inkscape:pagecheckerboard="0"
     showgrid="false"
     units="cm"
     width="6cm"
     inkscape:zoom="1.9778269"
     inkscape:cx="140.55831"
     inkscape:cy="99.604268"
     inkscape:window-width="1912"
     inkscape:window-height="1011"
     inkscape:window-x="4"
     inkscape:window-y="4"
     inkscape:window-maximized="1"
     inkscape:current-layer="Layer_1"
     inkscape:document-units="cm" />
  <defs
     id="defs5">
    <mask
       id="mask"
       x="174.51"
       y="91.03"
       width="1280.35"
       height="670.56"
       maskUnits="userSpaceOnUse">
      <g
         id="b">
        <path
           id="a"
           d="M 1454.86,761.33 H 174.77 V 91 h 1280.09 z"
           fill="#ffffff" />
      </g>
    </mask>
    <clipPath
       clipPathUnits="userSpaceOnUse"
       id="clipPath2927">
      <g
         id="g2933"
         transform="matrix(3.924269,0,0,3.924269,34.61686,-39.017628)">
        <path
           style="color:#000000;fill:#ffffff;fill-opacity:0.0118039;stroke-width:3.77953;-inkscape-stroke:none"
           d="M 222.88866,111.89276 A 109.78596,112.07166 0 0 1 113.10271,223.96442 109.78596,112.07166 0 0 1 3.3167496,111.89276 109.78596,112.07166 0 0 1 113.10271,-0.17890167 109.78596,112.07166 0 0 1 222.88866,111.89276 Z"
           id="path2929" />
        <path
           style="color:#000000;fill:#000000;-inkscape-stroke:none"
           d="m 113.10352,-2.0683594 c -61.675621,0 -111.6757856,51.0650544 -111.6757856,113.9609394 0,62.89588 50.0001646,113.96094 111.6757856,113.96094 61.67561,0 111.67578,-51.06506 111.67578,-113.96094 0,-62.895885 -50.00017,-113.9609394 -111.67578,-113.9609394 z m 0,3.7792969 c 59.59048,0 107.89453,49.2867065 107.89453,110.1816425 0,60.89493 -48.30405,110.18164 -107.89453,110.18164 C 53.513033,222.07422 5.2070312,172.78751 5.2070312,111.89258 5.2070313,50.997644 53.513033,1.7109375 113.10352,1.7109375 Z"
           id="path2931" />
      </g>
    </clipPath>
  </defs>
  <title
     id="title7">stickers alt</title>
  <g
     id="g1022"
     transform="matrix(0.25433632,0,0,0.25433632,-10.229324,11.987997)"
     style="stroke:#47a141;stroke-width:1486.04021636;stroke-miterlimit:4;stroke-dasharray:none;stroke-opacity:1;paint-order:stroke fill markers"
     clip-path="url(#clipPath2927)">
    <path
       style="color:#000000;fill:#47a141;stroke:#47a141;stroke-width:1486.04021636;stroke-miterlimit:4;stroke-dasharray:none;stroke-opacity:1;paint-order:stroke fill markers"
       d="M -32.720001,-36.790001 H 874.60001 V 889.42002 H -32.720001 Z"
       id="rect9" />
    <g
       mask="url(#mask)"
       id="g13"
       style="stroke:#47a141;stroke-width:1486.04021636;stroke-miterlimit:4;stroke-dasharray:none;stroke-opacity:1;paint-order:stroke fill markers">
      <path
         d="M 753,112 C 662.45,76.7 334.23,63.65 333.68,259.49 237.92,320.8 174.51,420.79 174.51,527.67 c 0,129.22 104.74,233.91 234,233.91 129.26,0 234,-104.74 234,-233.91 A 233.93,233.93 0 0 0 491.82,309 c -16.94,-6.55 -53.74,-18.1 -83.13,-15.62 -41.93,26.66 -93.06,81.47 -117.24,136.06 35.94,-43.13 92.12,-62 141.88,-53.91 a 154.17,154.17 0 0 1 129.21,152.1 c 0,85.15 -69.31,154.12 -154.46,154.12 a 153.66,153.66 0 0 1 -117.24,-54 C 249.34,578.89 238.64,525.92 247.2,474.15 276.77,292.65 492,189.4 652,149.74 599.8,177.38 505.67,222.74 439.78,272.24 631.9,346.43 663,184.44 753,112 Z"
         fill="#ffffff"
         id="path11"
         style="stroke:#47a141;stroke-width:1486.04021636;stroke-miterlimit:4;stroke-dasharray:none;stroke-opacity:1;paint-order:stroke fill markers" />
    </g>
  </g>
  <metadata
     id="metadata833">
    <rdf:RDF>
      <cc:Work
         rdf:about="">
        <dc:title>stickers alt</dc:title>
      </cc:Work>
    </rdf:RDF>
  </metadata>
</svg>
