<?xml version="1.0" encoding="UTF-8" standalone="no"?>
<svg
   width="3.0168645cm"
   height="4.1973281cm"
   viewBox="-0.5 -0.5 114.02322 158.63917"
   stroke-miterlimit="10"
   fill="#333366"
   stroke="#ffffff"
   stroke-width="0.095"
   version="1.1"
   id="svg4"
   sodipodi:docname="protonmail-icon.svg"
   inkscape:version="1.1 (c4e8f9ed74, 2021-05-24)"
   xmlns:inkscape="http://www.inkscape.org/namespaces/inkscape"
   xmlns:sodipodi="http://sodipodi.sourceforge.net/DTD/sodipodi-0.dtd"
   xmlns="http://www.w3.org/2000/svg"
   xmlns:svg="http://www.w3.org/2000/svg">
  <defs
     id="defs8" />
  <sodipodi:namedview
     id="namedview6"
     pagecolor="#ffffff"
     bordercolor="#999999"
     borderopacity="1"
     inkscape:pageshadow="0"
     inkscape:pageopacity="0"
     inkscape:pagecheckerboard="0"
     showgrid="false"
     units="cm"
     width="6cm"
     inkscape:zoom="1.1301914"
     inkscape:cx="137.14491"
     inkscape:cy="72.554082"
     inkscape:window-width="1912"
     inkscape:window-height="1011"
     inkscape:window-x="4"
     inkscape:window-y="4"
     inkscape:window-maximized="1"
     inkscape:current-layer="svg4"
     inkscape:document-units="cm" />
  <path
     d="m 56.510402,1.393918 c 0,0 -45.695137,-1.50265122 -55.1206382,49.187591 v 34.548859 c 0,0 0.387781,3.696037 10.7851572,11.197178 10.397377,7.501134 37.29241,28.613384 44.335481,28.613384 7.043072,0 33.947801,-21.12922 44.337898,-28.635201 10.39011,-7.505985 10.78516,-11.197172 10.78516,-11.197172 V 50.581509 C 102.20554,-0.10873322 56.510402,1.393918 56.510402,1.393918 Z M 87.775243,69.376767 H 25.245563 V 50.554848 c 6.301441,-25.142747 31.264839,-25.49175 31.264839,-25.49175 0,0 24.963398,0.34658 31.264841,25.520834 z M 56.510402,132.71594 c 0,0 -7.08185,-0.69316 -12.602881,-4.54189 L 1.3897638,97.922295 v 52.268025 c 0,0 0.3150721,6.05908 7.0091405,6.05908 H 104.61705 c 6.6965,0 7.00914,-6.05908 7.00914,-6.05908 V 97.922295 L 69.113286,128.17405 c -5.542846,3.84873 -12.602884,4.54189 -12.602884,4.54189 z"
     id="path2"
     style="stroke:#000000;stroke-width:3.77953;stroke-miterlimit:10;stroke-dasharray:none;stroke-opacity:1" />
</svg>
