<?xml version="1.0" encoding="UTF-8" standalone="no"?>
<!-- Created with Inkscape (http://www.inkscape.org/) -->

<svg
   width="6.0748305cm"
   height="6.0436683cm"
   id="svg2169"
   sodipodi:version="0.32"
   inkscape:version="1.1 (c4e8f9ed74, 2021-05-24)"
   version="1.0"
   sodipodi:docname="Python-logo-notext.svg"
   inkscape:output_extension="org.inkscape.output.svg.inkscape"
   xmlns:inkscape="http://www.inkscape.org/namespaces/inkscape"
   xmlns:sodipodi="http://sodipodi.sourceforge.net/DTD/sodipodi-0.dtd"
   xmlns:xlink="http://www.w3.org/1999/xlink"
   xmlns="http://www.w3.org/2000/svg"
   xmlns:svg="http://www.w3.org/2000/svg"
   xmlns:rdf="http://www.w3.org/1999/02/22-rdf-syntax-ns#"
   xmlns:cc="http://creativecommons.org/ns#"
   xmlns:dc="http://purl.org/dc/elements/1.1/">
  <defs
     id="defs2171">
    <linearGradient
       id="linearGradient11301"
       inkscape:collect="always">
      <stop
         id="stop11303"
         offset="0"
         style="stop-color:#ffe052;stop-opacity:1" />
      <stop
         id="stop11305"
         offset="1"
         style="stop-color:#ffc331;stop-opacity:1" />
    </linearGradient>
    <linearGradient
       gradientUnits="userSpaceOnUse"
       y2="168.1012"
       x2="147.77737"
       y1="111.92053"
       x1="89.136749"
       id="linearGradient11307"
       xlink:href="#linearGradient11301"
       inkscape:collect="always" />
    <linearGradient
       id="linearGradient9515"
       inkscape:collect="always">
      <stop
         id="stop9517"
         offset="0"
         style="stop-color:#387eb8;stop-opacity:1" />
      <stop
         id="stop9519"
         offset="1"
         style="stop-color:#366994;stop-opacity:1" />
    </linearGradient>
    <linearGradient
       gradientUnits="userSpaceOnUse"
       y2="131.85291"
       x2="110.14919"
       y1="77.070274"
       x1="55.549179"
       id="linearGradient9521"
       xlink:href="#linearGradient9515"
       inkscape:collect="always" />
  </defs>
  <sodipodi:namedview
     id="base"
     pagecolor="#ffffff"
     bordercolor="#666666"
     borderopacity="1.0"
     inkscape:pageopacity="0.0"
     inkscape:pageshadow="2"
     inkscape:zoom="2.2026505"
     inkscape:cx="162.53146"
     inkscape:cy="92.615693"
     inkscape:document-units="px"
     inkscape:current-layer="layer1"
     width="6cm"
     height="184.25197px"
     inkscape:window-width="1908"
     inkscape:window-height="1007"
     inkscape:window-x="4"
     inkscape:window-y="4"
     inkscape:pagecheckerboard="0"
     showgrid="false"
     units="cm"
     inkscape:window-maximized="0" />
  <metadata
     id="metadata2174">
    <rdf:RDF>
      <cc:Work
         rdf:about="">
        <dc:format>image/svg+xml</dc:format>
        <dc:type
           rdf:resource="http://purl.org/dc/dcmitype/StillImage" />
      </cc:Work>
    </rdf:RDF>
  </metadata>
  <g
     inkscape:label="Calque 1"
     inkscape:groupmode="layer"
     id="layer1"
     transform="translate(-471.46969,-249.83573)">
    <g
       id="g1894"
       transform="matrix(2.045066,0,0,2.045066,381.46073,113.74681)">
      <path
         style="color:#000000;display:inline;overflow:visible;visibility:visible;opacity:1;fill:url(#linearGradient9521);fill-opacity:1;fill-rule:nonzero;stroke:none;stroke-width:1;stroke-linecap:butt;stroke-linejoin:miter;stroke-miterlimit:4;stroke-dasharray:none;stroke-dashoffset:0;stroke-opacity:1;marker:none;marker-start:none;marker-mid:none;marker-end:none"
         d="M 99.75,67.46875 C 71.718268,67.468752 73.46875,79.625 73.46875,79.625 L 73.5,92.21875 h 26.75 V 96 H 62.875 c 0,0 -17.9375,-2.034276 -17.9375,26.25 -2e-6,28.28427 15.65625,27.28125 15.65625,27.28125 h 9.34375 v -13.125 c 0,0 -0.503652,-15.65625 15.40625,-15.65625 15.9099,0 26.53125,0 26.53125,0 0,0 14.90625,0.24096 14.90625,-14.40625 0,-14.647206 0,-24.21875 0,-24.21875 0,-2e-6 2.26318,-14.65625 -27.03125,-14.65625 z M 85,75.9375 c 2.661429,-2e-6 4.8125,2.151071 4.8125,4.8125 2e-6,2.661429 -2.151071,4.8125 -4.8125,4.8125 -2.661429,2e-6 -4.8125,-2.151071 -4.8125,-4.8125 -2e-6,-2.661429 2.151071,-4.8125 4.8125,-4.8125 z"
         id="path8615" />
      <path
         id="path8620"
         d="m 100.5461,177.31485 c 28.03174,0 26.28125,-12.15625 26.28125,-12.15625 l -0.0312,-12.59375 h -26.75 v -3.78125 h 37.375 c 0,0 17.9375,2.03427 17.9375,-26.25001 10e-6,-28.284267 -15.65625,-27.281247 -15.65625,-27.281247 h -9.34375 v 13.124997 c 0,0 0.50366,15.65625 -15.40625,15.65625 -15.909902,0 -26.531252,0 -26.531252,0 0,0 -14.90625,-0.24096 -14.90625,14.40626 0,14.6472 0,24.21875 0,24.21875 0,0 -2.26318,14.65625 27.031252,14.65625 z m 14.75,-8.46875 c -2.66143,0 -4.8125,-2.15107 -4.8125,-4.8125 0,-2.66143 2.15107,-4.8125 4.8125,-4.8125 2.66143,0 4.8125,2.15107 4.8125,4.8125 1e-5,2.66143 -2.15107,4.8125 -4.8125,4.8125 z"
         style="color:#000000;display:inline;overflow:visible;visibility:visible;opacity:1;fill:url(#linearGradient11307);fill-opacity:1;fill-rule:nonzero;stroke:none;stroke-width:1;stroke-linecap:butt;stroke-linejoin:miter;stroke-miterlimit:4;stroke-dasharray:none;stroke-dashoffset:0;stroke-opacity:1;marker:none;marker-start:none;marker-mid:none;marker-end:none" />
    </g>
    <path
       style="fill:#ffffff;fill-opacity:0.0118039;stroke:none;stroke-width:1.45033;paint-order:stroke fill markers"
       d="m 140.88357,206.58931 c -1.2626,-0.3878 -2.46366,-1.17153 -3.71879,-2.42666 -6.13162,-6.13162 -1.9318,-16.1817 6.76216,-16.1817 8.85523,0 12.9181,10.99017 6.19142,16.74795 -1.5939,1.36433 -4.56532,2.50924 -6.38426,2.45992 -0.54209,-0.0147 -1.82483,-0.28448 -2.85053,-0.59951 z"
       id="path987"
       transform="translate(473.36088,251.72485)" />
    <path
       id="path8615-2"
       style="color:#000000;display:inline;overflow:visible;visibility:visible;fill:none;fill-opacity:0.786268;fill-rule:nonzero;stroke:#000000;stroke-width:3.77953;stroke-linecap:butt;stroke-linejoin:miter;stroke-miterlimit:4;stroke-dasharray:none;stroke-dashoffset:0;stroke-opacity:1;marker:none;marker-start:none;marker-mid:none;marker-end:none"
       d="m 585.45521,251.7255 c -57.32674,0 -53.74609,24.85937 -53.74609,24.85937 l 0.0644,25.75586 h 54.70508 v 7.73242 h -76.43555 c 0,0 -36.68359,-4.15962 -36.68359,53.6836 0,57.8432 32.01953,55.79101 32.01953,55.79101 h 19.10742 v -26.84179 c 0,0 -1.02899,-32.01758 31.50781,-32.01758 h 54.25782 c 0,0 30.48437,0.49357 30.48437,-29.46094 v -49.5293 c 0,-10e-6 4.6278,-29.97265 -55.28125,-29.97265 z m 62.59766,56.81836 v 26.84179 c 0,0 1.02901,32.01758 -31.50781,32.01758 h -54.25782 c 0,0 -30.48437,-0.49164 -30.48437,29.46289 v 49.52735 c 0,0 -4.62779,29.97461 55.28125,29.97461 57.32676,0 53.74609,-24.86133 53.74609,-24.86133 l -0.0625,-25.75586 h -54.70703 v -7.73242 h 76.43555 c 0,0 36.68359,4.16158 36.68359,-53.68164 2e-5,-57.84321 -32.01953,-55.79297 -32.01953,-55.79297 z" />
  </g>
</svg>
