<?xml version="1.0" encoding="UTF-8" standalone="no"?>
<svg
   version="1.1"
   id="Layer_1"
   x="0px"
   y="0px"
   width="6.1792235cm"
   height="14.929243cm"
   viewBox="0 0 233.54545 564.25487"
   enable-background="new 0 0 595.276 850.395"
   xml:space="preserve"
   sodipodi:docname="Rouen_logo.svg"
   inkscape:version="1.1 (c4e8f9ed74, 2021-05-24)"
   xmlns:inkscape="http://www.inkscape.org/namespaces/inkscape"
   xmlns:sodipodi="http://sodipodi.sourceforge.net/DTD/sodipodi-0.dtd"
   xmlns="http://www.w3.org/2000/svg"
   xmlns:svg="http://www.w3.org/2000/svg"><defs
   id="defs14" /><sodipodi:namedview
   id="namedview12"
   pagecolor="#ffffff"
   bordercolor="#999999"
   borderopacity="1"
   inkscape:pageshadow="0"
   inkscape:pageopacity="0"
   inkscape:pagecheckerboard="0"
   showgrid="false"
   units="cm"
   width="15cm"
   inkscape:zoom="0.40274289"
   inkscape:cx="-402.24173"
   inkscape:cy="357.54821"
   inkscape:window-width="1912"
   inkscape:window-height="1011"
   inkscape:window-x="4"
   inkscape:window-y="4"
   inkscape:window-maximized="1"
   inkscape:current-layer="g840"
   inkscape:document-units="cm" />
<g
   id="g840"
   transform="translate(-10.081745,1.8896751)"><g
     id="g1395"
     transform="matrix(0.90048318,0,0,0.90048318,1.0033032,-0.18805447)"><path
       id="rect5-6"
       style="fill:#00498e;stroke:#000000;stroke-width:3.77953;stroke-miterlimit:4;stroke-dasharray:none;stroke-opacity:1"
       d="M 11.97151,8.98845e-5 V 476.90829 477.08798 622.58993 L 267.54769,591.47079 V 477.08798 476.90829 288.76767 275.67392 167.63095 160.20321 131.25595 123.15243 66.461028 41.566496 8.98845e-5 Z" /><rect
       style="fill:#00498e"
       x="11.970408"
       y="-9.0664635e-06"
       width="255.57729"
       height="477.08887"
       id="rect5" /><polygon
       style="fill:#ac252b"
       points="42.866,84.504 42.866,110.317 88.151,104.803 88.151,84.504 "
       id="polygon7"
       transform="matrix(5.6437515,0,0,5.6437515,-229.95465,-0.01129657)" /><path
       style="fill:#ffffff"
       inkscape:connector-curvature="0"
       id="path11"
       d="m 96.062299,432.95474 c -12.941122,0 -19.245192,7.33124 -19.245192,22.43956 0,15.09703 6.30407,22.42827 19.245192,22.42827 12.952411,0 19.245191,-7.33124 19.245191,-22.42827 0,-15.10832 -6.28714,-22.43956 -19.245191,-22.43956 m 0,41.01879 c -6.083964,0 -8.917127,-5.90336 -8.917127,-18.57923 0,-12.68151 2.833163,-18.57923 8.917127,-18.57923 6.089611,0 8.922771,5.89772 8.922771,18.57923 0,12.67587 -2.83316,18.57923 -8.922771,18.57923" /><path
       style="fill:#ffffff"
       inkscape:connector-curvature="0"
       id="path13"
       d="m 159.18766,432.95474 -15.83637,2.25186 v 2.70336 h 0.34427 c 3.03634,0 6.27021,0.5418 6.27021,6.98696 v 11.68821 c 0,5.74534 -5.1076,14.90515 -9.35734,14.90515 -4.48678,0 -6.36051,-1.91888 -6.36051,-13.71432 v -24.8833 l -16.23707,2.31394 v 2.70336 h 0.34427 c 3.03634,0 6.27021,0.5418 6.27021,6.98696 v 20.32879 c 0,6.54111 1.47301,12.59686 12.09455,12.59686 7.49491,0 11.36652,-6.46774 13.24589,-10.10232 v 9.11466 h 16.24272 v -2.70336 h -0.34992 c -3.03069,0 -6.2702,-0.53051 -6.2702,-6.98696 v -34.25193 l -0.40071,0.0621 z" /><path
       style="fill:#ffffff"
       inkscape:connector-curvature="0"
       id="path15"
       d="m 224.98251,432.95474 -15.83636,2.25186 v 2.70336 h 0.34427 c 3.03634,0 6.27585,0.5418 6.27585,6.98696 v 21.62121 c 0,6.06704 -1.28678,7.63036 -6.27585,7.63036 h -0.34427 v 2.75415 h 22.85719 v -2.75415 h -0.34991 c -4.98343,0 -6.27021,-1.56332 -6.27021,-7.63036 v -12.33159 c 0,-5.74534 5.6889,-14.89951 10.41837,-14.89951 3.73052,0 5.30512,1.90195 5.30512,13.70868 v 13.52242 c 0,6.06704 -1.29806,7.63036 -6.27585,7.63036 h -0.34991 v 2.75415 h 22.85719 v -2.75415 h -0.34427 c -4.98343,0 -6.27585,-1.56332 -6.27585,-7.63036 v -20.97218 c 0,-6.5411 -1.32628,-12.59685 -11.02789,-12.59685 -8.16651,0 -12.32031,6.56368 -14.30691,10.17004 v -10.23212 l -0.40071,0.0677 z" /><path
       style="fill:#ffffff"
       inkscape:connector-curvature="0"
       id="path17"
       d="m 203.7733,453.45849 c 0.59259,-14.12066 -4.63917,-20.50375 -16.50798,-20.50375 -12.29773,0 -18.79933,7.24658 -18.79933,20.96654 0,15.19862 8.00848,23.90129 21.98241,23.90129 6.01059,0 10.75135,-1.80036 12.30902,-2.40424 l 0.22575,-0.0903 v -4.09172 l -0.47407,0.18624 c -2.69772,1.03845 -5.31077,1.5351 -7.9972,1.5351 -11.45682,0 -15.70092,-11.76157 -15.70092,-19.13796 h 24.96232 z m -24.96232,-4.14251 c 0,-4.64481 0.5418,-12.50655 8.10443,-12.50655 6.94182,0 7.14499,5.78484 7.23529,12.50655 z" /><path
       style="fill:#ffffff"
       inkscape:connector-curvature="0"
       id="path19"
       d="m 88.51096,486.93158 c -12.867754,0 -21.897756,-20.98347 -21.897756,-20.98347 0,0 -7.782733,-17.69316 -9.171096,-18.96864 8.888908,-1.64234 13.928778,-4.33441 13.928778,-16.29351 0,-14.28998 -16.739367,-15.82508 -23.93515,-15.82508 H 23.68683 23.308699 v 3.02505 h 0.378131 c 6.337933,0 7.455396,1.23033 7.455396,8.20601 v 39.57963 c 0,6.97568 -1.117463,8.19473 -7.455396,8.19473 h -0.378131 v 3.04198 h 26.519988 v -3.04198 h -0.366844 c -6.34922,0 -7.461039,-1.21905 -7.461039,-8.19473 v -17.31503 c 0.615168,0 4.441632,0.0339 4.430344,0 2.05997,1.43351 7.432821,16.55877 14.030367,28.20747 6.648339,11.81802 15.926666,14.75277 20.272355,14.75277 6.12347,0 8.713952,-2.41553 8.713952,-2.41553 l -0.570019,-1.96967 z m -41.255824,-43.5359 h -5.254332 v -17.30374 c 0,-5.16967 0.468431,-6.27585 5.434932,-6.27585 8.668803,0 12.715372,3.84339 12.715372,12.06634 0,7.74323 -4.221526,11.51325 -12.895972,11.51325" /><path
       style="fill:#efa92a"
       inkscape:connector-curvature="0"
       id="path21"
       d="m 126.94491,110.49336 c 1.78907,-0.53051 5.03987,0.10159 4.83105,-2.52276 -4.41906,-8.83247 -13.88363,-13.776397 -23.55138,-12.935478 -0.73933,0.107232 -1.99788,1.055382 -1.68748,1.997888 2.63563,9.04129 12.29774,12.19615 20.40781,13.46035 M 267.54769,66.460809 V 41.566221 c -9.40814,15.068816 -68.71268,93.618549 -68.71268,93.618549 0,0 9.87093,-3.71359 14.6399,-3.43704 -0.0677,-0.19754 -18.16724,27.04485 -27.90836,38.64841 -20.61662,29.74821 -44.04948,58.67808 -64.98215,88.00301 v 0.0339 c -1.03281,1.4448 -2.04868,3.03633 -0.4515,2.68078 0,0 11.82366,-2.89525 23.64167,-5.78485 11.81238,-2.88395 6.99261,-4.81412 -1.93016,-5.54781 -8.92841,-0.71111 27.97043,-43.41173 34.48897,-52.57718 6.50724,-9.16546 14.23918,-15.35101 26.11928,-21.03427 7.13934,-3.41447 37.60996,-6.4508 65.09503,-8.53899 v -7.42718 c -12.20744,0.44021 -21.3616,0.76191 -23.91822,0.82963 -9.89914,0.23704 -29.91753,2.8896 -43.42302,2.8896 l -3.11536,0.10159 c 11.80673,-15.41308 23.1676,-31.08014 25.33481,-34.0036 16.53054,-4.90442 31.2946,-2.35345 45.12179,1.23598 v -8.10443 c -15.24942,-3.54992 -30.54398,-5.96544 -50.46643,-0.5418 l 7.46104,-7.97462 c 3.04763,-2.42681 17.72703,-1.97531 17.72703,-1.97531 l 6.22505,-10.46916 c -1.72698,-5.006008 -11.71642,-2.69207 -11.71642,-2.69207 0,0 5.07937,-10.158753 10.67797,-10.994028 3.52735,-0.203175 11.22542,0.03951 11.22542,0.03951 l 6.1912,-11.643059 c 0,0 -2.38731,-4.76897 -8.92841,-3.00812 l 3.95627,-6.21377 c 2.93475,-1.100532 5.53087,-1.343213 7.64728,-1.21905 M 74.260487,111.40765 c -12.077628,29.86108 -17.241661,108.18507 28.173603,146.92378 0,0 -15.187331,3.85468 -16.067756,4.11429 -1.806,0.53616 -6.75557,1.42223 -9.272684,7.85046 -2.522757,6.41695 -6.761214,17.46741 -7.128058,18.90657 -0.355556,1.45609 -5.423645,14.12631 0.366844,14.12631 0,0 9.724184,-23.77148 10.915015,-26.108 1.303707,-2.5679 4.639164,-7.19013 9.340409,-8.63494 0,0 6.433877,-2.04303 13.07657,-4.14251 0,0 9.79191,-12.4614 11.11255,-14.95594 C 73.114806,224.76239 59.891496,150.90826 87.094378,106.37906 v -1.24727 c -10.796497,0.62646 -15.667054,-8.934055 -17.975349,-14.0868 2.940395,-2.635632 15.988748,-8.911483 25.018751,-0.31605 12.95241,-34.037465 47.62198,-22.072712 52.45867,-18.08258 10.72313,7.246577 13.07093,20.599693 12.02119,33.53517 0,9.04694 9.21625,16.61521 6.5919,26.17572 -1.98095,5.83564 -9.42506,18.14466 -27.98736,15.28328 -15.87587,-4.41906 -26.78525,-16.4346 -36.57151,-30.62864 0,0 -0.51923,-0.63774 -1.269845,-0.21446 -0.739331,0.42892 -0.598238,1.70441 -0.411994,2.5284 12.540419,35.9507 51.809639,52.58283 75.744789,50.96307 1.94709,-2.58483 3.96191,-5.35592 4.80283,-6.68784 -1.394,-0.11288 -24.44309,2.87831 -31.94927,-8.73653 -2.31394,-3.68537 4.57708,-0.43457 11.6487,-3.7926 13.76511,-6.91359 15.36793,-22.60887 12.92419,-28.80571 -1.82858,-4.63916 -7.4554,-15.55982 -6.09525,-24.922803 10.05152,-4.735108 13.55629,-14.916435 10.09667,-17.964061 -5.99366,-2.10512 -13.03707,-1.585894 -18.18981,-5.796133 -10.40144,-15.88716 -54.79519,-19.555599 -70.123614,6.309714 -4.943927,-1.681838 -20.706925,-2.618701 -27.959145,8.838115 0.931219,11.185915 8.81554,19.047658 14.391566,22.676598 m 85.660863,175.02402 c 11.07304,-4.30619 24.27942,-14.58346 26.51999,-37.77928 -7.85046,13.46035 -11.25364,24.8833 -27.89707,26.70059 -16.64906,1.806 -46.1038,1.02152 -50.36484,1.15697 -4.26103,0.12981 -13.9062,1.315 -17.59157,3.6628 -3.674082,2.34215 -9.046933,13.39262 -9.046933,13.39262 0.733687,2.5284 1.450444,6.15169 2.895244,4.34004 1.450444,-1.81164 8.685734,-9.77497 8.685734,-9.77497 2.172844,-0.72805 5.062445,-0.3612 3.256444,2.17284 -1.811644,2.53405 -32.197602,42.68934 -32.197602,42.68934 -4.086076,4.98907 -2.528401,9.41377 -2.528401,9.41377 6.868446,-7.25222 25.537976,-29.30235 25.537976,-29.30235 5.062445,6.87973 15.001088,19.79828 16.084688,21.95983 1.09489,2.1672 2.87832,4.31183 0.69983,6.49032 -1.06103,1.06102 -4.605302,4.67867 -5.717122,6.27585 l -12.33724,-19.96759 c -0.818344,1.25291 -1.901945,3.71359 0.22575,6.28714 2.133338,2.57919 9.024358,17.15136 9.893496,25.14291 6.067036,-3.75874 16.016966,-15.24377 17.010266,-21.30516 -3.78696,-2.40988 -14.419784,-23.2184 -15.802503,-26.31117 -1.772138,-3.97885 -0.146738,-8.70831 1.292419,-10.88116 1.456088,-2.1672 11.580974,-16.27657 11.580974,-16.27657 9.77498,2.88395 28.24134,4.54886 35.68544,4.77461 0.78449,0.0226 1.82294,-0.0113 3.04199,-0.13545 5.98237,12.49526 26.58207,54.95885 34.48896,64.18638 -9.49843,-29.35879 -20.17077,-58.22094 -23.41592,-66.91231 m 18.4212,-6.5919 c 0,0 5.06809,28.55173 5.06809,39.40467 0,10.84729 5.78485,21.35031 6.87409,22.79511 1.08924,1.45044 6.1009,21.9937 6.1009,27.06743 0,5.06809 -2.33087,15.27764 -3.77003,17.45048 -0.7224,1.08925 -3.89419,2.80495 -6.73864,4.6956 -2.94604,1.8568 -0.79577,-13.68609 -1.50124,-13.11043 -1.72134,1.38836 -5.24869,14.00779 -3.34674,20.34008 1.09489,3.61764 1.09489,4.34569 6.51853,1.81164 5.42365,-2.5284 14.10374,-9.04693 14.10374,-9.04693 -1.4448,-5.79049 -1.4448,-11.21413 0.72804,-13.38133 2.17849,-2.17285 4.34569,-9.41378 1.0836,-16.28223 -3.25644,-6.87973 -5.79049,-18.08822 -6.86845,-24.24555 -1.08924,-6.14605 -5.80742,-29.64099 -4.96085,-46.58353 12.15664,-2.08819 21.50269,-3.13793 27.75032,-2.6187 3.90548,0.32734 28.28649,1.73828 48.16378,0.6321 v -13.0935 c -34.5454,5.99366 -73.70175,-1.04974 -89.20514,4.16509" /></g></g>
</svg>
