<?xml version="1.0" encoding="UTF-8" standalone="no"?>
<!-- Created with Inkscape (http://www.inkscape.org/) -->

<svg
   width="55.91259mm"
   height="55.882763mm"
   viewBox="0 0 55.91259 55.882763"
   version="1.1"
   id="svg868"
   inkscape:version="1.1 (c4e8f9ed74, 2021-05-24)"
   sodipodi:docname="sublime-text.svg"
   xmlns:inkscape="http://www.inkscape.org/namespaces/inkscape"
   xmlns:sodipodi="http://sodipodi.sourceforge.net/DTD/sodipodi-0.dtd"
   xmlns="http://www.w3.org/2000/svg"
   xmlns:svg="http://www.w3.org/2000/svg">
  <sodipodi:namedview
     id="namedview870"
     pagecolor="#ffffff"
     bordercolor="#999999"
     borderopacity="1"
     inkscape:pageshadow="0"
     inkscape:pageopacity="0"
     inkscape:pagecheckerboard="0"
     inkscape:document-units="mm"
     showgrid="false"
     inkscape:zoom="0.74208053"
     inkscape:cx="204.82952"
     inkscape:cy="129.36601"
     inkscape:window-width="1912"
     inkscape:window-height="1011"
     inkscape:window-x="4"
     inkscape:window-y="4"
     inkscape:window-maximized="1"
     inkscape:current-layer="layer1" />
  <defs
     id="defs865">
    <clipPath
       clipPathUnits="userSpaceOnUse"
       id="clipPath1112">
      <circle
         style="fill:#ffffff;fill-opacity:0.0118039;stroke:#000000;stroke-width:7.16956;paint-order:stroke fill markers"
         id="circle1114"
         r="215.08661"
         cy="250.79472"
         cx="251.29153" />
    </clipPath>
    <linearGradient
       id="a"
       gradientUnits="userSpaceOnUse"
       x1="136.17799"
       x2="372.681"
       y1="369.638"
       y2="287.81">
      <stop
         offset=".233"
         stop-color="#f89822"
         id="stop2" />
      <stop
         offset="1"
         stop-color="#c27818"
         id="stop4" />
    </linearGradient>
  </defs>
  <g
     inkscape:label="Layer 1"
     inkscape:groupmode="layer"
     id="layer1"
     transform="translate(-50.804238,-44.659777)">
    <g
       id="g944"
       transform="matrix(0.12882756,0,0,0.12882756,46.140046,40.065042)"
       clip-path="url(#clipPath1112)"
       style="stroke:#000000;stroke-opacity:1">
      <path
         d="M 456.1,473.3 H 43.9 c -9.5,0 -17.3,-7.8 -17.3,-17.3 V 43.9 c 0,-9.5 7.8,-17.3 17.3,-17.3 h 412.2 c 9.5,0 17.3,7.8 17.3,17.3 v 412.2 c -0.1,9.5 -7.8,17.2 -17.3,17.2 z"
         fill="#4d4d4e"
         id="path7"
         style="stroke:#000000;stroke-opacity:1" />
      <path
         d="M 129.6,161.5 363.4,87.3 c 0,0 16.6,-8.7 12.6,7.4 l 0.6,71.5 c 0,0 2.9,10.5 -11.5,13.1 l -95,29.7 z"
         fill="#f89820"
         id="path9"
         style="stroke:#000000;stroke-opacity:1" />
      <path
         d="m 129.6,161.5 c 0,0 -9.2,2.2 -6.5,17.9 l -0.5,68.9 c 0,0 -0.8,8.7 15.7,12.2 L 370,335.1 c 0,0 7.8,3.1 6.9,-6.5 l 0.1,-76.8 c 0,0 2.2,-7.9 -12.2,-13.1 L 270.1,209 Z"
         fill="#f89820"
         id="path11"
         style="stroke:#000000;stroke-opacity:1" />
      <path
         d="m 231.7,290.5 -98.6,30.1 c 0,0 -11.9,0.4 -10.5,22.7 1.4,22.3 -0.1,67.2 -0.1,67.2 0,0 1,8.3 12.4,3.5 l 233.8,-74.6 c 0,0 8.3,-2.1 1.3,-4.4 -7,-2.2 -138.3,-44.5 -138.3,-44.5 z"
         fill="url(#a)"
         id="path13"
         style="fill:url(#a);stroke:#000000;stroke-opacity:1" />
    </g>
    <ellipse
       style="fill:#ffffff;fill-opacity:0.0118039;stroke:#000000;stroke-width:1;stroke-miterlimit:4;stroke-dasharray:none;stroke-opacity:1;paint-order:stroke fill markers"
       id="path1174"
       cx="78.775444"
       cy="72.601158"
       rx="27.441385"
       ry="27.441381" />
  </g>
</svg>
